<mxfile host="app.diagrams.net" modified="2022-05-15T08:06:36.791Z" agent="5.0 (Macintosh; Intel Mac OS X 10_15_7) AppleWebKit/537.36 (KHTML, like Gecko) Chrome/101.0.4951.64 Safari/537.36" etag="dTTl6RL2xvzkq3J2E2wr" version="17.4.6" type="github">
  <diagram id="DU6tooKkX1JDyYTQ7dte" name="Page-1">
    <mxGraphModel dx="1135" dy="742" grid="1" gridSize="10" guides="1" tooltips="1" connect="1" arrows="1" fold="1" page="1" pageScale="1" pageWidth="850" pageHeight="1100" math="0" shadow="0">
      <root>
        <mxCell id="0" />
        <mxCell id="1" parent="0" />
        <mxCell id="gZr75sLCCg8lczkHs85k-10" style="edgeStyle=orthogonalEdgeStyle;rounded=0;orthogonalLoop=1;jettySize=auto;html=1;entryX=0.5;entryY=0;entryDx=0;entryDy=0;exitX=0.5;exitY=1;exitDx=0;exitDy=0;" edge="1" parent="1" source="gZr75sLCCg8lczkHs85k-1" target="gZr75sLCCg8lczkHs85k-3">
          <mxGeometry relative="1" as="geometry" />
        </mxCell>
        <mxCell id="gZr75sLCCg8lczkHs85k-11" style="edgeStyle=orthogonalEdgeStyle;rounded=0;orthogonalLoop=1;jettySize=auto;html=1;" edge="1" parent="1" source="gZr75sLCCg8lczkHs85k-1" target="gZr75sLCCg8lczkHs85k-4">
          <mxGeometry relative="1" as="geometry" />
        </mxCell>
        <mxCell id="gZr75sLCCg8lczkHs85k-1" value="" style="rounded=1;whiteSpace=wrap;html=1;" vertex="1" parent="1">
          <mxGeometry x="220" y="210" width="440" height="140" as="geometry" />
        </mxCell>
        <mxCell id="gZr75sLCCg8lczkHs85k-9" value="" style="edgeStyle=orthogonalEdgeStyle;rounded=0;orthogonalLoop=1;jettySize=auto;html=1;" edge="1" parent="1" source="gZr75sLCCg8lczkHs85k-2" target="gZr75sLCCg8lczkHs85k-1">
          <mxGeometry relative="1" as="geometry" />
        </mxCell>
        <mxCell id="gZr75sLCCg8lczkHs85k-2" value="" style="rounded=1;whiteSpace=wrap;html=1;" vertex="1" parent="1">
          <mxGeometry x="345" y="110" width="190" height="70" as="geometry" />
        </mxCell>
        <mxCell id="gZr75sLCCg8lczkHs85k-12" style="edgeStyle=orthogonalEdgeStyle;rounded=0;orthogonalLoop=1;jettySize=auto;html=1;entryX=0.5;entryY=0;entryDx=0;entryDy=0;" edge="1" parent="1" source="gZr75sLCCg8lczkHs85k-3" target="gZr75sLCCg8lczkHs85k-5">
          <mxGeometry relative="1" as="geometry" />
        </mxCell>
        <mxCell id="gZr75sLCCg8lczkHs85k-3" value="" style="rounded=1;whiteSpace=wrap;html=1;" vertex="1" parent="1">
          <mxGeometry x="180" y="420" width="240" height="140" as="geometry" />
        </mxCell>
        <mxCell id="gZr75sLCCg8lczkHs85k-4" value="" style="rounded=1;whiteSpace=wrap;html=1;" vertex="1" parent="1">
          <mxGeometry x="460" y="420" width="240" height="100" as="geometry" />
        </mxCell>
        <mxCell id="gZr75sLCCg8lczkHs85k-5" value="" style="rounded=1;whiteSpace=wrap;html=1;" vertex="1" parent="1">
          <mxGeometry x="245" y="600" width="110" height="70" as="geometry" />
        </mxCell>
        <mxCell id="gZr75sLCCg8lczkHs85k-8" value="" style="edgeStyle=orthogonalEdgeStyle;rounded=0;orthogonalLoop=1;jettySize=auto;html=1;" edge="1" parent="1" source="gZr75sLCCg8lczkHs85k-6" target="gZr75sLCCg8lczkHs85k-2">
          <mxGeometry relative="1" as="geometry" />
        </mxCell>
        <mxCell id="gZr75sLCCg8lczkHs85k-6" value="" style="sketch=0;pointerEvents=1;shadow=0;dashed=0;html=1;strokeColor=none;fillColor=#505050;labelPosition=center;verticalLabelPosition=bottom;verticalAlign=top;outlineConnect=0;align=center;shape=mxgraph.office.devices.laptop;" vertex="1" parent="1">
          <mxGeometry x="411" y="40" width="58" height="40" as="geometry" />
        </mxCell>
        <mxCell id="gZr75sLCCg8lczkHs85k-7" value="" style="sketch=0;outlineConnect=0;fontColor=#232F3E;gradientColor=none;fillColor=#232F3D;strokeColor=none;dashed=0;verticalLabelPosition=bottom;verticalAlign=top;align=center;html=1;fontSize=12;fontStyle=0;aspect=fixed;pointerEvents=1;shape=mxgraph.aws4.user;" vertex="1" parent="1">
          <mxGeometry x="430" y="51" width="18" height="18" as="geometry" />
        </mxCell>
        <mxCell id="gZr75sLCCg8lczkHs85k-13" value="React.js" style="rounded=0;whiteSpace=wrap;html=1;" vertex="1" parent="1">
          <mxGeometry x="440" y="125" width="75" height="40" as="geometry" />
        </mxCell>
        <mxCell id="gZr75sLCCg8lczkHs85k-14" value="MUI" style="rounded=0;whiteSpace=wrap;html=1;" vertex="1" parent="1">
          <mxGeometry x="355" y="125" width="75" height="40" as="geometry" />
        </mxCell>
        <mxCell id="gZr75sLCCg8lczkHs85k-21" style="edgeStyle=orthogonalEdgeStyle;rounded=0;orthogonalLoop=1;jettySize=auto;html=1;entryX=0.5;entryY=0;entryDx=0;entryDy=0;" edge="1" parent="1" source="gZr75sLCCg8lczkHs85k-15" target="gZr75sLCCg8lczkHs85k-19">
          <mxGeometry relative="1" as="geometry" />
        </mxCell>
        <mxCell id="gZr75sLCCg8lczkHs85k-15" value="Login View" style="rounded=0;whiteSpace=wrap;html=1;" vertex="1" parent="1">
          <mxGeometry x="350" y="235" width="75" height="30" as="geometry" />
        </mxCell>
        <mxCell id="gZr75sLCCg8lczkHs85k-24" style="edgeStyle=orthogonalEdgeStyle;rounded=0;orthogonalLoop=1;jettySize=auto;html=1;exitX=0.5;exitY=1;exitDx=0;exitDy=0;entryX=0.75;entryY=0;entryDx=0;entryDy=0;" edge="1" parent="1" source="gZr75sLCCg8lczkHs85k-17" target="gZr75sLCCg8lczkHs85k-19">
          <mxGeometry relative="1" as="geometry">
            <Array as="points">
              <mxPoint x="488" y="285" />
              <mxPoint x="356" y="285" />
            </Array>
          </mxGeometry>
        </mxCell>
        <mxCell id="gZr75sLCCg8lczkHs85k-17" value="Home View" style="rounded=0;whiteSpace=wrap;html=1;" vertex="1" parent="1">
          <mxGeometry x="450" y="235" width="75" height="30" as="geometry" />
        </mxCell>
        <mxCell id="gZr75sLCCg8lczkHs85k-18" value="Redux Store" style="rounded=0;whiteSpace=wrap;html=1;" vertex="1" parent="1">
          <mxGeometry x="525" y="300" width="75" height="30" as="geometry" />
        </mxCell>
        <mxCell id="gZr75sLCCg8lczkHs85k-26" style="edgeStyle=orthogonalEdgeStyle;rounded=0;orthogonalLoop=1;jettySize=auto;html=1;exitX=1;exitY=0.5;exitDx=0;exitDy=0;entryX=0;entryY=0.5;entryDx=0;entryDy=0;" edge="1" parent="1" source="gZr75sLCCg8lczkHs85k-19" target="gZr75sLCCg8lczkHs85k-20">
          <mxGeometry relative="1" as="geometry" />
        </mxCell>
        <mxCell id="gZr75sLCCg8lczkHs85k-19" value="Actions" style="rounded=0;whiteSpace=wrap;html=1;" vertex="1" parent="1">
          <mxGeometry x="300" y="300" width="75" height="30" as="geometry" />
        </mxCell>
        <mxCell id="gZr75sLCCg8lczkHs85k-27" style="edgeStyle=orthogonalEdgeStyle;rounded=0;orthogonalLoop=1;jettySize=auto;html=1;exitX=1;exitY=0.5;exitDx=0;exitDy=0;entryX=0;entryY=0.5;entryDx=0;entryDy=0;" edge="1" parent="1" source="gZr75sLCCg8lczkHs85k-20" target="gZr75sLCCg8lczkHs85k-18">
          <mxGeometry relative="1" as="geometry" />
        </mxCell>
        <mxCell id="gZr75sLCCg8lczkHs85k-20" value="Reducers" style="rounded=0;whiteSpace=wrap;html=1;" vertex="1" parent="1">
          <mxGeometry x="420" y="300" width="75" height="30" as="geometry" />
        </mxCell>
        <mxCell id="gZr75sLCCg8lczkHs85k-28" value="API Call" style="text;html=1;align=center;verticalAlign=middle;resizable=0;points=[];autosize=1;strokeColor=none;fillColor=none;" vertex="1" parent="1">
          <mxGeometry x="440" y="360" width="60" height="20" as="geometry" />
        </mxCell>
        <mxCell id="gZr75sLCCg8lczkHs85k-29" value="MAPS API" style="rounded=0;whiteSpace=wrap;html=1;" vertex="1" parent="1">
          <mxGeometry x="484" y="455" width="51" height="30" as="geometry" />
        </mxCell>
        <mxCell id="gZr75sLCCg8lczkHs85k-30" value="Auth API" style="rounded=0;whiteSpace=wrap;html=1;" vertex="1" parent="1">
          <mxGeometry x="556.25" y="455" width="47.5" height="30" as="geometry" />
        </mxCell>
        <mxCell id="gZr75sLCCg8lczkHs85k-31" value="Places API" style="rounded=0;whiteSpace=wrap;html=1;" vertex="1" parent="1">
          <mxGeometry x="617.5" y="455" width="52.5" height="30" as="geometry" />
        </mxCell>
        <mxCell id="gZr75sLCCg8lczkHs85k-32" value="Create API" style="rounded=0;whiteSpace=wrap;html=1;" vertex="1" parent="1">
          <mxGeometry x="210" y="460" width="51" height="30" as="geometry" />
        </mxCell>
        <mxCell id="gZr75sLCCg8lczkHs85k-33" value="Read API" style="rounded=0;whiteSpace=wrap;html=1;" vertex="1" parent="1">
          <mxGeometry x="274.5" y="460" width="51" height="30" as="geometry" />
        </mxCell>
        <mxCell id="gZr75sLCCg8lczkHs85k-34" value="Update API" style="rounded=0;whiteSpace=wrap;html=1;" vertex="1" parent="1">
          <mxGeometry x="340" y="460" width="51" height="30" as="geometry" />
        </mxCell>
        <mxCell id="gZr75sLCCg8lczkHs85k-36" value="Delete API" style="rounded=0;whiteSpace=wrap;html=1;" vertex="1" parent="1">
          <mxGeometry x="274.5" y="510" width="51" height="30" as="geometry" />
        </mxCell>
        <mxCell id="gZr75sLCCg8lczkHs85k-37" value="&lt;b&gt;Firebase Functions&lt;/b&gt;" style="text;html=1;align=center;verticalAlign=middle;resizable=0;points=[];autosize=1;strokeColor=none;fillColor=none;" vertex="1" parent="1">
          <mxGeometry x="195.5" y="420" width="130" height="20" as="geometry" />
        </mxCell>
        <mxCell id="gZr75sLCCg8lczkHs85k-38" value="&lt;b&gt;Google API&#39;s&lt;/b&gt;" style="text;html=1;align=center;verticalAlign=middle;resizable=0;points=[];autosize=1;strokeColor=none;fillColor=none;" vertex="1" parent="1">
          <mxGeometry x="469" y="420" width="90" height="20" as="geometry" />
        </mxCell>
        <mxCell id="gZr75sLCCg8lczkHs85k-39" value="" style="shape=cylinder3;whiteSpace=wrap;html=1;boundedLbl=1;backgroundOutline=1;size=15;" vertex="1" parent="1">
          <mxGeometry x="305" y="610" width="35" height="50" as="geometry" />
        </mxCell>
        <mxCell id="gZr75sLCCg8lczkHs85k-40" value="&lt;b&gt;Firestore&lt;/b&gt;" style="text;html=1;align=center;verticalAlign=middle;resizable=0;points=[];autosize=1;strokeColor=none;fillColor=none;" vertex="1" parent="1">
          <mxGeometry x="245" y="600" width="70" height="20" as="geometry" />
        </mxCell>
      </root>
    </mxGraphModel>
  </diagram>
</mxfile>
